<?xml version="1.0" standalone="no"?>
<!DOCTYPE svg PUBLIC "-//W3C//DTD SVG 20010904//EN"
 "http://www.w3.org/TR/2001/REC-SVG-20010904/DTD/svg10.dtd">
<svg version="1.0" xmlns="http://www.w3.org/2000/svg"
 width="757.000000pt" height="757.000000pt" viewBox="0 0 757.000000 757.000000"
 preserveAspectRatio="xMidYMid meet">
<metadata>
Created by potrace 1.11, written by Peter Selinger 2001-2013
</metadata>
<g transform="translate(0.000000,757.000000) scale(0.100000,-0.100000)"
fill="#000000" stroke="none">
<path d="M3639 7379 c-25 -5 -131 -32 -235 -60 -104 -27 -196 -52 -204 -54 -8
-2 -76 -19 -149 -39 l-135 -36 -375 0 c-415 -1 -453 -5 -596 -64 -130 -53
-235 -132 -335 -253 -33 -41 -41 -44 -165 -78 -71 -20 -139 -37 -150 -40 -50
-10 -724 -195 -761 -208 -195 -70 -367 -228 -457 -420 -50 -108 -71 -201 -71
-327 -1 -127 4 -169 33 -268 21 -75 69 -257 76 -287 2 -11 13 -51 24 -90 10
-38 33 -124 51 -190 18 -66 45 -167 61 -225 15 -58 44 -163 63 -235 19 -71 44
-166 56 -210 12 -44 32 -120 45 -170 13 -49 37 -139 54 -200 16 -60 74 -279
129 -485 55 -206 110 -411 122 -455 12 -44 37 -138 56 -210 19 -71 50 -186 70
-255 19 -69 36 -135 39 -145 2 -11 15 -63 30 -115 14 -52 27 -102 30 -110 2
-8 18 -69 36 -135 17 -66 42 -158 54 -205 13 -47 35 -130 50 -185 14 -55 32
-122 40 -150 148 -560 190 -711 211 -765 87 -224 269 -398 497 -475 105 -35
143 -40 277 -39 125 1 88 -7 690 155 19 5 42 11 50 13 8 2 85 23 170 46 222
60 305 82 485 130 88 23 187 50 220 59 58 16 61 16 145 -6 47 -13 128 -35 180
-49 130 -35 193 -52 500 -134 146 -40 306 -83 355 -96 50 -13 142 -38 205 -55
204 -56 276 -67 390 -64 124 4 151 9 244 42 213 75 394 243 478 444 22 54 61
178 83 269 2 8 13 50 25 92 11 43 23 85 24 95 2 10 11 43 20 73 8 30 25 91 36
135 12 44 28 103 35 130 36 131 142 531 149 560 1 6 10 35 18 65 9 30 31 109
48 175 18 66 43 161 56 210 13 50 40 149 58 220 19 72 65 240 101 375 36 135
68 253 70 262 3 16 15 58 91 338 19 69 36 136 39 150 3 14 9 34 12 45 4 11 8
25 9 30 1 6 36 136 77 290 64 237 96 358 152 570 5 17 9 32 10 35 4 14 30 110
62 230 20 74 58 216 85 315 79 287 87 331 83 458 -4 127 -7 146 -37 237 -52
153 -142 279 -271 383 -75 61 -235 138 -312 153 -6 1 -70 18 -142 37 -72 20
-142 39 -155 41 -12 3 -45 12 -73 20 -27 8 -95 26 -150 41 -55 14 -134 35
-175 46 -41 12 -115 31 -165 45 -79 21 -94 28 -120 61 -90 115 -228 219 -356
267 -134 50 -185 55 -590 56 -230 0 -389 4 -410 11 -19 6 -74 21 -124 34 -184
48 -292 77 -364 96 -41 12 -84 23 -97 25 -13 2 -36 9 -51 15 -36 14 -274 20
-334 8z m-654 -699 c-2 -8 -14 -51 -25 -95 -29 -110 -55 -206 -79 -295 -11
-41 -41 -151 -65 -245 -25 -93 -68 -255 -97 -360 -28 -104 -52 -197 -54 -205
-2 -8 -17 -64 -34 -125 -16 -60 -64 -238 -106 -395 -42 -157 -97 -361 -122
-455 -25 -93 -63 -237 -85 -320 -22 -82 -42 -157 -45 -165 -3 -8 -7 -22 -9
-31 -4 -18 -23 -90 -54 -204 -12 -44 -23 -87 -26 -95 -10 -43 -36 -139 -69
-260 -20 -74 -44 -166 -54 -205 -11 -38 -25 -91 -34 -117 -8 -26 -12 -49 -9
-52 3 -4 1 -6 -5 -6 -11 0 -11 2925 1 2975 30 135 76 239 147 336 129 176 329
298 534 325 28 3 51 7 52 8 1 1 56 2 123 2 104 0 119 -2 115 -16z m1215 -57
c19 -3 42 -7 50 -8 13 -2 170 -43 475 -126 62 -17 176 -47 410 -109 39 -10
147 -40 240 -65 94 -26 186 -51 205 -55 19 -5 94 -24 165 -44 72 -19 248 -66
393 -105 350 -94 442 -138 574 -273 182 -186 262 -435 224 -695 -3 -23 -36
-151 -71 -285 -36 -134 -67 -250 -69 -258 -7 -27 -78 -292 -281 -1050 -92
-344 -169 -632 -171 -640 -2 -8 -17 -67 -35 -130 -17 -63 -46 -171 -64 -240
-18 -69 -41 -152 -50 -185 -9 -33 -25 -96 -36 -140 -11 -44 -26 -100 -34 -125
-7 -25 -30 -108 -50 -185 -121 -460 -145 -524 -245 -650 -66 -82 -125 -134
-218 -191 -68 -42 -177 -86 -242 -98 -19 -3 -46 -9 -60 -12 -27 -6 -189 -6
-231 0 -26 4 -128 30 -244 61 -33 9 -76 21 -95 25 -19 5 -111 29 -205 55 -93
25 -177 48 -185 50 -8 2 -134 35 -280 75 -146 39 -272 73 -280 75 -8 1 -42 10
-75 20 -33 9 -91 25 -130 35 -38 10 -104 28 -145 39 -166 45 -306 82 -325 86
-91 20 -280 82 -338 111 -187 93 -333 260 -402 459 -34 97 -44 168 -41 285 3
119 8 142 112 520 19 69 36 136 39 149 2 13 9 38 14 55 11 33 77 276 91 336 5
19 29 112 55 205 25 94 59 222 76 285 17 63 41 153 54 200 13 47 26 96 29 110
3 14 27 106 54 205 27 99 75 277 107 395 31 118 77 289 102 380 24 91 46 173
48 184 2 10 12 44 21 75 9 31 17 63 19 71 6 28 116 435 142 525 96 336 368
571 696 602 34 3 63 6 64 7 5 4 106 -4 143 -11z m-2760 -400 c2 -64 1 -3599 0
-3608 -1 -9 -71 234 -84 290 -2 11 -12 47 -21 80 -9 33 -23 85 -31 115 -8 30
-26 97 -40 148 -14 51 -27 100 -29 110 -2 9 -15 58 -29 107 -13 50 -35 133
-49 185 -14 52 -42 156 -62 230 -21 74 -38 142 -40 150 -2 8 -13 49 -25 90
-11 41 -23 83 -25 92 -2 10 -15 59 -29 110 -14 51 -35 129 -46 173 -45 168
-92 342 -106 395 -8 30 -17 63 -19 73 -3 9 -7 25 -9 35 -3 9 -12 44 -21 77
-57 204 -66 256 -65 365 1 178 54 334 160 476 114 152 251 245 447 303 123 37
123 37 123 4z"/>
<path d="M5291 6026 c-14 -47 -150 -328 -205 -421 -19 -33 -43 -73 -52 -90
-31 -56 -156 -239 -217 -320 -195 -258 -413 -475 -618 -615 -85 -58 -251 -150
-294 -163 -11 -3 -50 -14 -88 -26 -37 -11 -91 -23 -120 -26 -184 -23 -298 -87
-432 -246 -46 -55 -101 -159 -136 -257 -83 -238 -40 -518 112 -718 57 -75 67
-86 139 -146 91 -75 250 -145 375 -163 47 -7 181 -7 211 -1 12 2 37 7 55 10
80 13 228 77 299 131 19 14 62 51 94 83 l59 57 -57 -108 c-99 -189 -266 -444
-380 -582 -22 -27 -48 -58 -56 -69 -27 -33 -104 -118 -157 -173 -30 -31 -47
-56 -40 -58 7 -2 73 -20 147 -40 74 -20 169 -45 210 -56 41 -11 116 -31 165
-44 50 -13 152 -40 228 -60 77 -20 140 -35 142 -33 2 2 -7 48 -21 103 -14 55
-27 116 -30 135 -3 19 -7 42 -9 50 -3 8 -7 33 -10 55 -3 22 -8 49 -10 60 -2
11 -7 47 -10 80 -4 33 -8 76 -11 95 -13 104 -18 306 -15 569 1 68 6 76 16 24
3 -18 10 -45 16 -60 6 -15 11 -30 11 -33 4 -33 68 -161 110 -218 176 -239 470
-358 764 -307 226 40 429 184 543 387 30 54 85 198 75 198 -3 0 0 8 5 18 20
37 29 196 17 297 -22 181 -95 313 -236 424 -141 112 -253 259 -345 454 -48
103 -118 285 -129 340 -3 12 -15 58 -27 102 -11 44 -23 89 -25 100 -2 11 -8
43 -13 70 -40 204 -64 461 -64 675 0 124 11 389 17 399 2 3 7 35 10 70 4 36 9
68 12 72 2 4 1 10 -4 13 -4 2 -14 -14 -21 -38z"/>
</g>
</svg>
